<svg width="32" height="32" viewBox="0 0 32 32" fill="none" xmlns="http://www.w3.org/2000/svg">
<path d="M27.2268 6.10669C26.5579 5.43546 25.763 4.90287 24.8879 4.53948C24.0127 4.17608 23.0744 3.98901 22.1268 3.98901C21.1792 3.98901 20.2409 4.17608 19.3657 4.53948C18.4905 4.90287 17.6957 5.43546 17.0268 6.10669L16.0001 7.14669L14.9734 6.10669C14.3045 5.43546 13.5097 4.90287 12.6345 4.53948C11.7594 4.17608 10.8211 3.98901 9.87345 3.98901C8.92583 3.98901 7.98753 4.17608 7.11235 4.53948C6.23718 4.90287 5.44235 5.43546 4.77345 6.10669C1.94678 8.93336 1.77345 13.7067 5.33345 17.3334L16.0001 28L26.6668 17.3334C30.2268 13.7067 30.0534 8.93336 27.2268 6.10669Z" stroke="currentColor" stroke-width="2" stroke-linecap="round" stroke-linejoin="round"/>
<path d="M15.9999 7.14661L11.8266 11.3333C11.299 11.8652 11.0029 12.5841 11.0029 13.3333C11.0029 14.0825 11.299 14.8013 11.8266 15.3333V15.3333C12.3585 15.8609 13.0774 16.1569 13.8266 16.1569C14.5758 16.1569 15.2947 15.8609 15.8266 15.3333L18.8399 12.3866C19.5888 11.6457 20.5998 11.23 21.6533 11.23C22.7068 11.23 23.7177 11.6457 24.4666 12.3866L27.6666 15.5866" stroke="currentColor" stroke-width="2" stroke-linecap="round" stroke-linejoin="round"/>
<path d="M24.0002 20L21.3335 17.3334" stroke="currentColor" stroke-width="2" stroke-linecap="round" stroke-linejoin="round"/>
<path d="M20.0002 24L17.3335 21.3334" stroke="currentColor" stroke-width="2" stroke-linecap="round" stroke-linejoin="round"/>
</svg>
