<svg width="16" height="16" viewBox="0 0 16 16" fill="none" xmlns="http://www.w3.org/2000/svg">
<path d="M10.4706 4.34978C10.4706 4.48728 10.4612 4.62478 10.444 4.76071C10.4518 4.70603 10.4597 4.64978 10.4659 4.59509C10.4284 4.86696 10.3565 5.13103 10.2518 5.38415C10.2721 5.33415 10.294 5.28415 10.3143 5.23415C10.2096 5.48103 10.0753 5.71228 9.91121 5.92478C9.94403 5.88259 9.97684 5.8404 10.0096 5.79821C9.84715 6.00759 9.65809 6.19665 9.44871 6.35915C9.4909 6.32634 9.53309 6.29353 9.57527 6.26071C9.36277 6.42321 9.13152 6.55915 8.88465 6.66384C8.93465 6.64353 8.98465 6.62165 9.03465 6.60134C8.78152 6.70603 8.51746 6.7779 8.24559 6.8154C8.30027 6.80759 8.35652 6.79978 8.41121 6.79353C8.13777 6.82946 7.86277 6.82946 7.58934 6.79353C7.64402 6.80134 7.70027 6.80915 7.75496 6.8154C7.48309 6.7779 7.21902 6.70603 6.9659 6.60134C7.0159 6.62165 7.0659 6.64353 7.1159 6.66384C6.86902 6.55915 6.63777 6.42478 6.42527 6.26071C6.46746 6.29353 6.50965 6.32634 6.55183 6.35915C6.34246 6.19665 6.1534 6.00759 5.9909 5.79821C6.02371 5.8404 6.05652 5.88259 6.08933 5.92478C5.92683 5.71228 5.7909 5.48103 5.68621 5.23415C5.70652 5.28415 5.7284 5.33415 5.74871 5.38415C5.64402 5.13103 5.57215 4.86696 5.53465 4.59509C5.54246 4.64978 5.55027 4.70603 5.55652 4.76071C5.52058 4.48728 5.52058 4.21228 5.55652 3.93884C5.54871 3.99353 5.5409 4.04978 5.53465 4.10446C5.57215 3.83259 5.64402 3.56853 5.74871 3.3154C5.7284 3.3654 5.70652 3.4154 5.68621 3.4654C5.7909 3.21853 5.92527 2.98728 6.08933 2.77478C6.05652 2.81696 6.02371 2.85915 5.9909 2.90134C6.1534 2.69196 6.34246 2.5029 6.55183 2.3404C6.50965 2.37321 6.46746 2.40603 6.42527 2.43884C6.63777 2.27634 6.86902 2.1404 7.1159 2.03571C7.0659 2.05603 7.0159 2.0779 6.9659 2.09821C7.21902 1.99353 7.48309 1.92165 7.75496 1.88415C7.70027 1.89196 7.64402 1.89978 7.58934 1.90603C7.86277 1.87009 8.13777 1.87009 8.41121 1.90603C8.35652 1.89821 8.30027 1.8904 8.24559 1.88415C8.51746 1.92165 8.78152 1.99353 9.03465 2.09821C8.98465 2.0779 8.93465 2.05603 8.88465 2.03571C9.13152 2.1404 9.36277 2.27478 9.57527 2.43884C9.53309 2.40603 9.4909 2.37321 9.44871 2.3404C9.65809 2.5029 9.84715 2.69196 10.0096 2.90134C9.97684 2.85915 9.94403 2.81696 9.91121 2.77478C10.0737 2.98728 10.2096 3.21853 10.3143 3.4654C10.294 3.4154 10.2721 3.3654 10.2518 3.3154C10.3565 3.56853 10.4284 3.83259 10.4659 4.10446C10.4581 4.04978 10.4503 3.99353 10.444 3.93884C10.4612 4.07478 10.469 4.21228 10.4706 4.34978C10.4721 4.67634 10.7565 4.9904 11.0956 4.97478C11.4331 4.95915 11.7222 4.69978 11.7206 4.34978C11.7175 3.60134 11.4925 2.83571 11.0518 2.22634C10.9331 2.06228 10.8065 1.90134 10.6659 1.75603C10.5237 1.60915 10.3675 1.48259 10.205 1.35915C9.90965 1.13415 9.57996 0.968527 9.22996 0.840402C7.81902 0.323215 6.11746 0.784152 5.16277 1.94665C5.03152 2.10603 4.90652 2.27165 4.80027 2.44978C4.69402 2.62634 4.61121 2.81384 4.53465 3.00446C4.3909 3.35759 4.31746 3.73259 4.28777 4.11228C4.22996 4.85603 4.42371 5.63259 4.81121 6.27009C5.18465 6.88571 5.74871 7.41384 6.40808 7.71228C6.60183 7.79978 6.80027 7.88103 7.00652 7.93884C7.21121 7.99509 7.41902 8.02634 7.62996 8.05134C8.01434 8.09665 8.40652 8.0654 8.78621 7.98884C10.2284 7.69509 11.4362 6.4529 11.6597 4.99509C11.6925 4.78259 11.7175 4.57009 11.7175 4.35446C11.719 4.0279 11.4284 3.71384 11.0925 3.72946C10.755 3.7404 10.4706 3.99978 10.4706 4.34978ZM12.544 14.1201C12.2378 14.1201 11.9315 14.1201 11.6253 14.1201C10.8956 14.1201 10.1675 14.1201 9.43777 14.1201C8.55965 14.1201 7.68152 14.1201 6.80183 14.1201C6.04402 14.1201 5.28621 14.1201 4.52683 14.1201C4.17215 14.1201 3.81746 14.1232 3.46277 14.1201C3.42371 14.1201 3.38464 14.117 3.34714 14.1123C3.40183 14.1201 3.45808 14.1279 3.51277 14.1342C3.45027 14.1248 3.39089 14.1076 3.33308 14.0842C3.38308 14.1045 3.43308 14.1263 3.48308 14.1467C3.42058 14.1201 3.36277 14.0857 3.30808 14.0435C3.35027 14.0763 3.39246 14.1092 3.43464 14.142C3.38777 14.1029 3.34402 14.0607 3.30652 14.0138C3.33933 14.056 3.37214 14.0982 3.40496 14.1404C3.36277 14.0857 3.32996 14.0279 3.30183 13.9654C3.32214 14.0154 3.34402 14.0654 3.36433 14.1154C3.34089 14.0576 3.32527 13.9967 3.31433 13.9357C3.32214 13.9904 3.32996 14.0467 3.33621 14.1013C3.31121 13.9123 3.32839 13.7123 3.32839 13.5217C3.32839 13.2982 3.32839 13.0763 3.32839 12.8529C3.32839 12.6857 3.33777 12.5201 3.35964 12.3545C3.35183 12.4092 3.34402 12.4654 3.33777 12.5201C3.38152 12.1998 3.46589 11.8857 3.59246 11.5873C3.57214 11.6373 3.55027 11.6873 3.52996 11.7373C3.65183 11.4529 3.80808 11.1857 3.99714 10.9404C3.96433 10.9826 3.93152 11.0248 3.89871 11.067C4.08777 10.8248 4.30496 10.606 4.54871 10.417C4.50652 10.4498 4.46433 10.4826 4.42215 10.5154C4.66746 10.3263 4.93465 10.1701 5.21902 10.0482C5.16902 10.0685 5.11902 10.0904 5.06902 10.1107C5.36746 9.98571 5.67996 9.89978 6.00183 9.85603C5.94715 9.86384 5.8909 9.87165 5.83621 9.8779C6.06746 9.84821 6.29715 9.84665 6.52996 9.84665C6.8159 9.84665 7.10183 9.84665 7.38777 9.84665C8.05496 9.84665 8.72215 9.84665 9.38934 9.84665C9.64715 9.84665 9.9034 9.84509 10.1612 9.8779C10.1065 9.87009 10.0503 9.86228 9.99559 9.85603C10.3159 9.89978 10.63 9.98415 10.9284 10.1107C10.8784 10.0904 10.8284 10.0685 10.7784 10.0482C11.0628 10.1701 11.33 10.3263 11.5753 10.5154C11.5331 10.4826 11.4909 10.4498 11.4487 10.417C11.6909 10.606 11.9097 10.8232 12.0987 11.067C12.0659 11.0248 12.0331 10.9826 12.0003 10.9404C12.1893 11.1857 12.3456 11.4529 12.4675 11.7373C12.4472 11.6873 12.4253 11.6373 12.405 11.5873C12.53 11.8857 12.6159 12.1982 12.6597 12.5201C12.6518 12.4654 12.644 12.4092 12.6378 12.3545C12.6675 12.5904 12.669 12.8248 12.669 13.0623C12.669 13.3201 12.669 13.5779 12.669 13.8357C12.669 13.9248 12.6722 14.0138 12.6612 14.1013C12.669 14.0467 12.6768 13.9904 12.6831 13.9357C12.6737 13.9982 12.6565 14.0576 12.6331 14.1154C12.6534 14.0654 12.6753 14.0154 12.6956 13.9654C12.669 14.0279 12.6347 14.0857 12.5925 14.1404C12.6253 14.0982 12.6581 14.056 12.6909 14.0138C12.6518 14.0607 12.6097 14.1045 12.5628 14.142C12.605 14.1092 12.6472 14.0763 12.6893 14.0435C12.6347 14.0857 12.5768 14.1185 12.5143 14.1467C12.5643 14.1263 12.6143 14.1045 12.6643 14.0842C12.6065 14.1076 12.5456 14.1232 12.4847 14.1342C12.5393 14.1263 12.5956 14.1185 12.6503 14.1123C12.6159 14.117 12.58 14.1185 12.544 14.1201C12.3831 14.1217 12.2175 14.1888 12.1018 14.3029C11.994 14.4107 11.9112 14.5888 11.919 14.7451C11.9347 15.0795 12.194 15.3748 12.544 15.3701C13.1518 15.3607 13.6862 14.9638 13.8643 14.381C13.9347 14.1498 13.919 13.9013 13.919 13.6638C13.919 13.1201 13.9362 12.581 13.8425 12.042C13.705 11.2529 13.3081 10.5107 12.7643 9.9279C12.2206 9.34509 11.4893 8.91696 10.7159 8.72634C10.2722 8.61696 9.82527 8.59978 9.37215 8.59978C8.90652 8.59978 8.44246 8.59978 7.97684 8.59978C7.51746 8.59978 7.05965 8.59978 6.60027 8.59978C6.13621 8.59978 5.67527 8.62165 5.22371 8.74196C4.45652 8.94509 3.73464 9.3779 3.20183 9.9654C2.66433 10.5576 2.27527 11.3013 2.14871 12.0951C2.06433 12.6279 2.08152 13.1623 2.08152 13.6998C2.08152 13.9467 2.06746 14.2045 2.15652 14.4404C2.27214 14.7435 2.45652 14.9826 2.72683 15.1623C2.93777 15.3013 3.20496 15.3685 3.45496 15.3717C3.57683 15.3732 3.69871 15.3717 3.82058 15.3717C4.13308 15.3717 4.44402 15.3717 4.75652 15.3717C5.20027 15.3717 5.64246 15.3717 6.08621 15.3717C6.60183 15.3717 7.11746 15.3717 7.63309 15.3717C8.16277 15.3717 8.6909 15.3717 9.22059 15.3717C9.70496 15.3717 10.1878 15.3717 10.6722 15.3717C11.0518 15.3717 11.4315 15.3717 11.8097 15.3717C12.0268 15.3717 12.244 15.3717 12.4612 15.3717C12.4893 15.3717 12.5175 15.3717 12.5456 15.3717C12.8722 15.3717 13.1862 15.0842 13.1706 14.7467C13.155 14.406 12.8956 14.1201 12.544 14.1201Z" fill="white"/>
</svg>
