<svg width="102" height="50" viewBox="0 0 102 50" fill="none" xmlns="http://www.w3.org/2000/svg">
<path d="M0.9352 23.6237C2.01993 23.6042 3.08024 23.5846 4.11611 23.5651C5.16176 23.5358 6.1732 23.5211 7.15044 23.5211C8.5772 23.5211 9.76943 23.7312 10.7271 24.1514C11.6946 24.5619 12.4226 25.1629 12.9113 25.9544C13.3999 26.7362 13.6442 27.6939 13.6442 28.8275C13.6442 29.5604 13.4781 30.2445 13.1458 30.8797C12.8233 31.5149 12.3787 32.0377 11.8119 32.4482C11.2451 32.8586 10.5952 33.1029 9.86227 33.1811V32.7414C10.6636 32.7609 11.4259 33.0101 12.149 33.4889C12.8819 33.9678 13.4732 34.603 13.9227 35.3946C14.3722 36.1861 14.597 37.0656 14.597 38.0331C14.597 39.1765 14.3429 40.183 13.8347 41.0528C13.3266 41.9127 12.5497 42.587 11.504 43.0756C10.4682 43.5643 9.14889 43.8086 7.54622 43.8086C6.37353 43.8086 5.25948 43.7939 4.20406 43.7646C3.14864 43.7451 2.05902 43.7255 0.9352 43.706L0.72998 43.5154V23.8143L0.9352 23.6237ZM4.13077 41.2726C4.71711 41.2726 5.29368 41.2678 5.86048 41.258C6.42728 41.2482 6.96476 41.2433 7.47292 41.2433C8.47948 41.2433 9.24172 41.0625 9.75966 40.701C10.2874 40.3394 10.6441 39.8996 10.8297 39.3817C11.0154 38.854 11.1082 38.3507 11.1082 37.8719C11.1082 37.393 11.0008 36.8897 10.7858 36.362C10.5708 35.8343 10.1848 35.3848 9.62773 35.0134C9.08048 34.6421 8.30846 34.4564 7.31168 34.4564H2.79684V31.8618H7.01851C7.88825 31.8618 8.55277 31.7153 9.01207 31.4221C9.47138 31.1191 9.78898 30.7478 9.96488 30.308C10.1408 29.8585 10.2287 29.409 10.2287 28.9594C10.2287 28.5001 10.1457 28.0506 9.97954 27.6109C9.81341 27.1711 9.50069 26.8095 9.04139 26.5261C8.59186 26.233 7.93223 26.0864 7.06248 26.0864C6.68136 26.0864 6.2074 26.0864 5.6406 26.0864C5.08358 26.0766 4.5803 26.0668 4.13077 26.057V41.2726Z" fill="#172774"/>
<path d="M23.4368 41.1847C23.515 41.429 23.5785 41.6977 23.6274 41.9909C23.686 42.2743 23.7153 42.5577 23.7153 42.8411C23.7153 42.9682 23.7104 43.0952 23.7007 43.2222C23.6909 43.3493 23.6665 43.4665 23.6274 43.574C23.2756 43.6327 22.8602 43.6864 22.3814 43.7353C21.9025 43.7841 21.4432 43.8086 21.0035 43.8086C19.9872 43.8086 19.2249 43.5447 18.7167 43.017C18.2184 42.4795 17.9692 41.6684 17.9692 40.5837V22.3045L18.1597 22.1139H19.435C20.1191 22.1139 20.5882 22.28 20.8422 22.6123C21.0963 22.9348 21.2234 23.4674 21.2234 24.2101V39.8801C21.2234 40.7498 21.6191 41.1847 22.4107 41.1847H23.4368Z" fill="#172774"/>
<path d="M37.897 39.5576C37.897 40.1048 37.9557 40.6179 38.073 41.0967C38.2 41.5756 38.415 41.9421 38.7179 42.1961C38.6397 42.4991 38.4834 42.8167 38.2489 43.1489C38.0241 43.4812 37.7847 43.7304 37.5306 43.8965C36.5045 43.7402 35.752 43.2858 35.2732 42.5333C34.8041 41.771 34.5695 40.8915 34.5695 39.8947V29.1793C34.7845 29.1305 35.0386 29.0963 35.3318 29.0767C35.6347 29.0572 35.9328 29.0474 36.226 29.0474C36.5191 29.0474 36.8123 29.0572 37.1055 29.0767C37.3987 29.0963 37.6625 29.1305 37.897 29.1793V39.5576ZM26.1409 32.3749C26.1409 31.857 26.1018 31.3683 26.0236 30.909C25.9454 30.44 25.8086 30.0344 25.6132 29.6924C25.8575 29.4872 26.1653 29.3161 26.5367 29.1793C26.908 29.0425 27.294 28.9741 27.6947 28.9741C28.3494 28.9741 28.8087 29.1549 29.0726 29.5165C29.3364 29.8683 29.4684 30.3862 29.4684 31.0703V38.297C29.4684 39.2058 29.5856 39.8752 29.8202 40.3052C30.0645 40.7254 30.5189 40.9355 31.1834 40.9355C31.6427 40.9355 32.1362 40.828 32.6639 40.613C33.2014 40.3882 33.7145 40.0658 34.2031 39.6455C34.6917 39.2253 35.0875 38.7221 35.3904 38.1357V41.2433C34.7357 41.986 33.949 42.6212 33.0304 43.1489C32.1216 43.6767 31.1346 43.9405 30.0694 43.9405C29.1605 43.9405 28.4178 43.7255 27.8413 43.2955C27.2647 42.8655 26.8347 42.2792 26.5513 41.5365C26.2777 40.7938 26.1409 39.9631 26.1409 39.0445V32.3749Z" fill="#172774"/>
<path d="M43.2188 37.4907V35.1014H50.0204V34.7203C50.0204 34.0851 49.9275 33.5036 49.7419 32.9759C49.566 32.4482 49.2777 32.0231 48.877 31.7006C48.4861 31.3781 47.9633 31.2169 47.3085 31.2169C46.3704 31.2169 45.6717 31.6126 45.2124 32.4042C44.7628 33.1958 44.5381 34.3001 44.5381 35.717V36.7431C44.5381 37.6031 44.6211 38.3898 44.7873 39.1032C44.9632 39.8068 45.2857 40.3638 45.7547 40.7743C46.2238 41.1847 46.8932 41.3899 47.763 41.3899C48.4959 41.3899 49.1995 41.2922 49.8738 41.0967C50.5481 40.8915 51.1882 40.6326 51.7941 40.3198C52.0677 40.5837 52.2925 40.916 52.4684 41.3166C52.6443 41.7075 52.7566 42.074 52.8055 42.416C52.0921 42.9242 51.2419 43.3297 50.2549 43.6327C49.2777 43.9258 48.276 44.0724 47.2499 44.0724C46.0675 44.0724 45.0804 43.8672 44.2889 43.4568C43.4973 43.0366 42.867 42.4698 42.3979 41.7564C41.9386 41.0332 41.6113 40.2172 41.4158 39.3084C41.2204 38.3996 41.1226 37.4516 41.1226 36.4646C41.1226 35.0085 41.3474 33.699 41.7969 32.5361C42.2465 31.3732 42.9305 30.4595 43.8491 29.795C44.7677 29.1207 45.9258 28.7835 47.3232 28.7835C48.5936 28.7835 49.6637 29.0621 50.5334 29.6191C51.4129 30.1663 52.0775 30.9139 52.527 31.8618C52.9765 32.8 53.2013 33.8505 53.2013 35.0134C53.2013 35.5216 53.1818 35.9565 53.1427 36.318C53.1036 36.6699 53.0352 37.0607 52.9374 37.4907H43.2188Z" fill="#172774"/>
<path d="M57.1335 26.79C57.1335 26.0473 57.2605 25.5147 57.5146 25.1922C57.7687 24.8599 58.2378 24.6938 58.9218 24.6938H60.1971L60.3877 24.899V39.9094C60.3877 40.3003 60.4805 40.613 60.6662 40.8475C60.8616 41.0723 61.1792 41.1847 61.619 41.1847H63.5686C63.7445 41.7026 63.8324 42.2548 63.8324 42.8411C63.8324 42.9682 63.8276 43.0952 63.8178 43.2222C63.808 43.3493 63.7885 43.4665 63.7591 43.574C63.2608 43.6424 62.7184 43.6962 62.132 43.7353C61.5457 43.7841 60.9642 43.8086 60.3877 43.8086C59.3225 43.8086 58.5114 43.5447 57.9544 43.017C57.4071 42.4795 57.1335 41.6684 57.1335 40.5837V26.79ZM63.979 29.15C64.0865 29.5409 64.1403 29.9416 64.1403 30.352C64.1403 30.7918 64.0865 31.2022 63.979 31.5833L59.0537 31.51L54.9493 31.5833C54.8614 31.1827 54.8174 30.7722 54.8174 30.352C54.8174 29.9611 54.8614 29.5604 54.9493 29.15L59.1124 29.2086L63.979 29.15Z" fill="#172774"/>
<path d="M78.4931 39.5576C78.4931 40.1048 78.5517 40.6179 78.669 41.0967C78.796 41.5756 79.011 41.9421 79.314 42.1961C79.2358 42.4991 79.0794 42.8167 78.8449 43.1489C78.6201 43.4812 78.3807 43.7304 78.1266 43.8965C77.1005 43.7402 76.3481 43.2858 75.8692 42.5333C75.4001 41.771 75.1656 40.8915 75.1656 39.8947V29.1793C75.3806 29.1305 75.6347 29.0963 75.9278 29.0767C76.2308 29.0572 76.5288 29.0474 76.822 29.0474C77.1152 29.0474 77.4083 29.0572 77.7015 29.0767C77.9947 29.0963 78.2585 29.1305 78.4931 29.1793V39.5576ZM66.7369 32.3749C66.7369 31.857 66.6978 31.3683 66.6196 30.909C66.5415 30.44 66.4047 30.0344 66.2092 29.6924C66.4535 29.4872 66.7613 29.3161 67.1327 29.1793C67.504 29.0425 67.8901 28.9741 68.2907 28.9741C68.9455 28.9741 69.4048 29.1549 69.6686 29.5165C69.9325 29.8683 70.0644 30.3862 70.0644 31.0703V38.297C70.0644 39.2058 70.1817 39.8752 70.4162 40.3052C70.6605 40.7254 71.1149 40.9355 71.7795 40.9355C72.2388 40.9355 72.7323 40.828 73.26 40.613C73.7975 40.3882 74.3105 40.0658 74.7991 39.6455C75.2878 39.2253 75.6835 38.7221 75.9865 38.1357V41.2433C75.3317 41.986 74.545 42.6212 73.6264 43.1489C72.7176 43.6767 71.7306 43.9405 70.6654 43.9405C69.7566 43.9405 69.0139 43.7255 68.4373 43.2955C67.8607 42.8655 67.4308 42.2792 67.1474 41.5365C66.8737 40.7938 66.7369 39.9631 66.7369 39.0445V32.3749Z" fill="#172774"/>
<path d="M83.9447 29.0327C84.6483 29.0327 85.1711 29.2673 85.5132 29.7363C85.865 30.2054 86.0409 30.8602 86.0409 31.7006V47.8983C86.0409 48.641 85.909 49.1736 85.6451 49.4961C85.391 49.8284 84.9219 49.9945 84.2379 49.9945H82.9626L82.772 49.8039V29.2233L82.9626 29.0327H83.9447ZM94.9533 36.2448C94.9533 37.9745 94.6797 39.411 94.1324 40.5544C93.5852 41.6977 92.8816 42.5479 92.0216 43.105C91.1616 43.662 90.2479 43.9405 89.2804 43.9405C88.3325 43.9405 87.4628 43.7451 86.6712 43.3542C85.8894 42.9535 85.1663 42.5137 84.5017 42.0349L84.9122 39.4843C85.479 39.9241 86.0946 40.3394 86.7592 40.7303C87.4334 41.1212 88.1077 41.3166 88.782 41.3166C89.3195 41.3166 89.7935 41.1309 90.2039 40.7596C90.6241 40.3882 90.9515 39.8263 91.186 39.0739C91.4304 38.3116 91.5525 37.3637 91.5525 36.2301C91.5525 35.116 91.4352 34.217 91.2007 33.5329C90.9759 32.8391 90.673 32.3358 90.2919 32.0231C89.9205 31.7006 89.5101 31.5394 89.0605 31.5394C88.611 31.5394 88.1273 31.6664 87.6094 31.9205C87.1012 32.1648 86.6223 32.5606 86.1728 33.1078C85.7233 33.6551 85.3715 34.388 85.1174 35.3066L84.4284 32.9906C84.5946 32.3065 84.9317 31.642 85.4399 30.997C85.948 30.352 86.5784 29.8243 87.3308 29.4139C88.0931 28.9936 88.9335 28.7835 89.8521 28.7835C90.9857 28.7835 91.9287 29.1011 92.6812 29.7363C93.4435 30.3618 94.0103 31.2364 94.3816 32.3602C94.7627 33.4841 94.9533 34.7789 94.9533 36.2448Z" fill="#172774"/>
<path d="M99.8892 43.2837C99.2833 43.2837 98.7751 43.0785 98.3647 42.6681C97.9542 42.2576 97.749 41.7495 97.749 41.1436C97.749 40.5377 97.9542 40.0295 98.3647 39.6191C98.7751 39.2086 99.2833 39.0034 99.8892 39.0034C100.476 39.0034 100.974 39.2086 101.384 39.6191C101.795 40.0295 102 40.5377 102 41.1436C102 41.7495 101.795 42.2576 101.384 42.6681C100.974 43.0785 100.476 43.2837 99.8892 43.2837Z" fill="#1CBDC6"/>
<path d="M39.4086 19.7043C39.4086 17.1167 38.899 14.5544 37.9087 12.1638C36.9185 9.77316 35.4671 7.60097 33.6374 5.77126C31.8076 3.94154 29.6355 2.49014 27.2448 1.4999C24.8542 0.509667 22.2919 -1.13108e-07 19.7043 0C17.1167 1.13108e-07 14.5544 0.509667 12.1638 1.4999C9.77316 2.49014 7.60097 3.94155 5.77126 5.77126C3.94154 7.60097 2.49013 9.77316 1.4999 12.1638C0.509667 14.5544 -2.26216e-07 17.1167 0 19.7043L8.03081 19.7043C8.03081 18.1713 8.33275 16.6533 8.9194 15.2371C9.50605 13.8208 10.3659 12.5339 11.4499 11.4499C12.5339 10.3659 13.8208 9.50605 15.2371 8.9194C16.6533 8.33275 18.1713 8.03081 19.7043 8.03081C21.2373 8.03081 22.7553 8.33275 24.1716 8.9194C25.5879 9.50605 26.8747 10.3659 27.9587 11.4499C29.0427 12.5339 29.9026 13.8208 30.4892 15.2371C31.0759 16.6533 31.3778 18.1713 31.3778 19.7043L39.4086 19.7043Z" fill="#7B78B8"/>
<path d="M28.5375 19.7044C28.5375 18.5445 28.309 17.3959 27.8651 16.3242C27.4212 15.2525 26.7706 14.2788 25.9504 13.4586C25.1302 12.6384 24.1564 11.9877 23.0848 11.5438C22.0131 11.0999 20.8645 10.8715 19.7045 10.8715C18.5446 10.8715 17.396 11.0999 16.3243 11.5438C15.2527 11.9877 14.2789 12.6384 13.4587 13.4586C12.6385 14.2788 11.9878 15.2525 11.544 16.3242C11.1001 17.3959 10.8716 18.5445 10.8716 19.7044L14.4716 19.7044C14.4716 19.0172 14.607 18.3368 14.8699 17.7019C15.1329 17.067 15.5184 16.4901 16.0043 16.0042C16.4902 15.5182 17.0671 15.1328 17.702 14.8698C18.3369 14.6068 19.0173 14.4715 19.7045 14.4715C20.3917 14.4715 21.0722 14.6068 21.7071 14.8698C22.342 15.1328 22.9189 15.5182 23.4048 16.0042C23.8907 16.4901 24.2762 17.067 24.5392 17.7019C24.8021 18.3368 24.9375 19.0172 24.9375 19.7044L28.5375 19.7044Z" fill="#1CBDC6"/>
<path d="M17.6659 19.7043C17.6659 19.1637 17.8807 18.6452 18.2629 18.2629C18.6452 17.8807 19.1637 17.6659 19.7043 17.6659C20.2449 17.6659 20.7634 17.8807 21.1456 18.2629C21.5279 18.6452 21.7427 19.1637 21.7427 19.7043L19.7043 19.7043L17.6659 19.7043Z" fill="#F2F2F3"/>
</svg>
