<svg width="141" height="69" viewBox="0 0 141 69" fill="none" xmlns="http://www.w3.org/2000/svg">
<path d="M1.29056 32.6043C2.78766 32.5773 4.25104 32.5504 5.6807 32.5234C7.12385 32.4829 8.51979 32.4627 9.86853 32.4627C11.8377 32.4627 13.4831 32.7527 14.8049 33.3326C16.1402 33.8991 17.145 34.7286 17.8193 35.821C18.4937 36.9 18.8309 38.2218 18.8309 39.7863C18.8309 40.7979 18.6016 41.742 18.143 42.6187C17.698 43.4954 17.0843 44.2169 16.302 44.7834C15.5197 45.3499 14.6228 45.6871 13.6113 45.795V45.188C14.7172 45.215 15.7693 45.5589 16.7673 46.2198C17.7789 46.8807 18.5949 47.7574 19.2153 48.8499C19.8357 49.9423 20.1459 51.1562 20.1459 52.4914C20.1459 54.0695 19.7952 55.4587 19.0939 56.659C18.3926 57.8459 17.3203 58.7766 15.8772 59.4509C14.4475 60.1253 12.6267 60.4625 10.4148 60.4625C8.79628 60.4625 7.25872 60.4423 5.80209 60.4018C4.34545 60.3748 2.84161 60.3478 1.29056 60.3209L1.00732 60.0579V32.8673L1.29056 32.6043ZM5.70093 56.9625C6.51017 56.9625 7.30593 56.9558 8.0882 56.9423C8.87046 56.9288 9.61227 56.922 10.3136 56.922C11.7028 56.922 12.7548 56.6725 13.4697 56.1735C14.198 55.6745 14.6903 55.0675 14.9465 54.3527C15.2028 53.6244 15.3309 52.9298 15.3309 52.2689C15.3309 51.608 15.1826 50.9134 14.8858 50.1851C14.5891 49.4568 14.0564 48.8364 13.2876 48.3238C12.5323 47.8113 11.4668 47.5551 10.0911 47.5551H3.8599V43.9742H9.68645C10.8868 43.9742 11.804 43.7719 12.4379 43.3672C13.0718 42.9491 13.5101 42.4366 13.7529 41.8297C13.9957 41.2093 14.1171 40.5888 14.1171 39.9684C14.1171 39.3345 14.0024 38.7141 13.7731 38.1072C13.5438 37.5002 13.1122 37.0012 12.4783 36.6101C11.8579 36.2054 10.9475 36.0031 9.74714 36.0031C9.22114 36.0031 8.567 36.0031 7.78473 36.0031C7.01595 35.9896 6.32135 35.9762 5.70093 35.9627V56.9625Z" fill="white"/>
<path d="M32.3462 56.8411C32.4541 57.1783 32.5418 57.5492 32.6092 57.9538C32.6901 58.345 32.7306 58.7361 32.7306 59.1272C32.7306 59.3026 32.7239 59.4779 32.7104 59.6532C32.6969 59.8286 32.6632 59.9904 32.6092 60.1388C32.1237 60.2197 31.5505 60.2939 30.8896 60.3613C30.2287 60.4288 29.5948 60.4625 28.9879 60.4625C27.5852 60.4625 26.5331 60.0983 25.8318 59.37C25.1439 58.6282 24.8 57.5087 24.8 56.0117V30.7835L25.063 30.5205H26.8231C27.7672 30.5205 28.4146 30.7498 28.7653 31.2084C29.116 31.6534 29.2913 32.3885 29.2913 33.4136V55.0406C29.2913 56.2409 29.8376 56.8411 30.93 56.8411H32.3462Z" fill="white"/>
<path d="M52.3035 54.5955C52.3035 55.3508 52.3845 56.0589 52.5463 56.7197C52.7216 57.3806 53.0184 57.8864 53.4365 58.2371C53.3286 58.6552 53.1128 59.0935 52.7891 59.5521C52.4789 60.0107 52.1484 60.3546 51.7978 60.5839C50.3816 60.3681 49.3431 59.7409 48.6822 58.7024C48.0348 57.6504 47.7111 56.4365 47.7111 55.0608V40.2719C48.0078 40.2044 48.3585 40.1572 48.7631 40.1303C49.1812 40.1033 49.5926 40.0898 49.9972 40.0898C50.4018 40.0898 50.8064 40.1033 51.2111 40.1303C51.6157 40.1572 51.9798 40.2044 52.3035 40.2719V54.5955ZM36.0782 44.6823C36.0782 43.9674 36.0243 43.2931 35.9164 42.6591C35.8085 42.0118 35.6197 41.452 35.3499 40.98C35.6871 40.6967 36.1119 40.4607 36.6245 40.2719C37.137 40.0831 37.6697 39.9886 38.2227 39.9886C39.1264 39.9886 39.7603 40.2382 40.1244 40.7372C40.4886 41.2227 40.6707 41.9376 40.6707 42.8817V52.8556C40.6707 54.1099 40.8325 55.0338 41.1562 55.6273C41.4934 56.2072 42.1206 56.4972 43.0377 56.4972C43.6716 56.4972 44.3527 56.3488 45.081 56.0521C45.8229 55.7419 46.5309 55.2968 47.2053 54.7169C47.8797 54.1369 48.4259 53.4423 48.844 52.6331V56.922C47.9404 57.9471 46.8546 58.8238 45.5868 59.5521C44.3325 60.2804 42.9703 60.6446 41.5001 60.6446C40.2458 60.6446 39.2208 60.3478 38.425 59.7544C37.6293 59.1609 37.0358 58.3517 36.6447 57.3267C36.267 56.3016 36.0782 55.1552 36.0782 53.8874V44.6823Z" fill="white"/>
<path d="M59.6484 51.7429V48.4452H69.0356V47.9192C69.0356 47.0425 68.9075 46.24 68.6512 45.5117C68.4084 44.7834 68.0106 44.1967 67.4576 43.7516C66.9181 43.3065 66.1965 43.084 65.2928 43.084C63.9981 43.084 63.0337 43.6302 62.3998 44.7227C61.7794 45.8152 61.4692 47.3393 61.4692 49.2949V50.7111C61.4692 51.898 61.5838 52.9837 61.8131 53.9683C62.0559 54.9394 62.501 55.7082 63.1483 56.2747C63.7957 56.8411 64.7196 57.1244 65.92 57.1244C66.9316 57.1244 67.9027 56.9895 68.8333 56.7197C69.7639 56.4365 70.6473 56.0791 71.4836 55.6475C71.8612 56.0116 72.1714 56.4702 72.4142 57.0232C72.657 57.5627 72.8121 58.0685 72.8795 58.5405C71.8949 59.2419 70.7215 59.8016 69.3593 60.2197C68.0106 60.6243 66.6281 60.8266 65.2119 60.8266C63.5799 60.8266 62.2177 60.5434 61.1252 59.9769C60.0328 59.397 59.1628 58.6147 58.5154 57.6301C57.8815 56.6321 57.4297 55.5059 57.16 54.2515C56.8902 52.9972 56.7553 51.6889 56.7553 50.3267C56.7553 48.3171 57.0655 46.5098 57.686 44.9048C58.3064 43.2998 59.2505 42.0387 60.5183 41.1216C61.7861 40.191 63.3844 39.7256 65.3131 39.7256C67.0664 39.7256 68.5433 40.11 69.7437 40.8788C70.9575 41.6341 71.8747 42.6659 72.4951 43.9742C73.1155 45.269 73.4257 46.7188 73.4257 48.3238C73.4257 49.0252 73.3988 49.6254 73.3448 50.1244C73.2909 50.61 73.1964 51.1494 73.0616 51.7429H59.6484Z" fill="white"/>
<path d="M78.8527 36.9742C78.8527 35.9492 79.0281 35.2141 79.3787 34.769C79.7294 34.3105 80.3768 34.0812 81.3209 34.0812H83.081L83.344 34.3644V55.081C83.344 55.6205 83.4722 56.0521 83.7284 56.3758C83.9982 56.686 84.4365 56.8411 85.0434 56.8411H87.7342C87.9769 57.556 88.0983 58.318 88.0983 59.1272C88.0983 59.3026 88.0916 59.4779 88.0781 59.6532C88.0646 59.8286 88.0376 59.9904 87.9972 60.1388C87.3093 60.2332 86.5608 60.3074 85.7515 60.3613C84.9423 60.4288 84.1398 60.4625 83.344 60.4625C81.8739 60.4625 80.7545 60.0983 79.9857 59.37C79.2304 58.6282 78.8527 57.5087 78.8527 56.0117V36.9742ZM88.3006 40.2314C88.449 40.7709 88.5232 41.3239 88.5232 41.8904C88.5232 42.4973 88.449 43.0638 88.3006 43.5898L81.503 43.4886L75.8383 43.5898C75.7169 43.0368 75.6562 42.4703 75.6562 41.8904C75.6562 41.3509 75.7169 40.7979 75.8383 40.2314L81.5839 40.3123L88.3006 40.2314Z" fill="white"/>
<path d="M108.332 54.5955C108.332 55.3508 108.413 56.0589 108.575 56.7197C108.75 57.3806 109.047 57.8864 109.465 58.2371C109.357 58.6552 109.141 59.0935 108.818 59.5521C108.508 60.0107 108.177 60.3546 107.826 60.5839C106.41 60.3681 105.372 59.7409 104.711 58.7024C104.064 57.6504 103.74 56.4365 103.74 55.0608V40.2719C104.037 40.2044 104.387 40.1572 104.792 40.1303C105.21 40.1033 105.621 40.0898 106.026 40.0898C106.431 40.0898 106.835 40.1033 107.24 40.1303C107.644 40.1572 108.009 40.2044 108.332 40.2719V54.5955ZM92.1069 44.6823C92.1069 43.9674 92.053 43.2931 91.9451 42.6591C91.8372 42.0118 91.6484 41.452 91.3786 40.98C91.7158 40.6967 92.1407 40.4607 92.6532 40.2719C93.1657 40.0831 93.6985 39.9886 94.2514 39.9886C95.1551 39.9886 95.789 40.2382 96.1532 40.7372C96.5173 41.2227 96.6994 41.9376 96.6994 42.8817V52.8556C96.6994 54.1099 96.8613 55.0338 97.1849 55.6273C97.5221 56.2072 98.1493 56.4972 99.0664 56.4972C99.7003 56.4972 100.381 56.3488 101.11 56.0521C101.852 55.7419 102.56 55.2968 103.234 54.7169C103.908 54.1369 104.455 53.4423 104.873 52.6331V56.922C103.969 57.9471 102.883 58.8238 101.616 59.5521C100.361 60.2804 98.999 60.6446 97.5289 60.6446C96.2745 60.6446 95.2495 60.3478 94.4538 59.7544C93.658 59.1609 93.0646 58.3517 92.6734 57.3267C92.2958 56.3016 92.1069 55.1552 92.1069 53.8874V44.6823Z" fill="white"/>
<path d="M115.856 40.0696C116.827 40.0696 117.549 40.3933 118.021 41.0407C118.507 41.6881 118.749 42.5917 118.749 43.7516V66.1069C118.749 67.132 118.567 67.8671 118.203 68.3121C117.852 68.7707 117.205 69 116.261 69H114.501L114.238 68.737V40.3326L114.501 40.0696H115.856ZM131.05 50.0233C131.05 52.4105 130.672 54.3932 129.917 55.9712C129.162 57.5492 128.191 58.7226 127.004 59.4914C125.817 60.2602 124.556 60.6446 123.22 60.6446C121.912 60.6446 120.712 60.3748 119.619 59.8353C118.54 59.2823 117.542 58.6754 116.625 58.0145L117.192 54.4943C117.974 55.1012 118.824 55.6745 119.741 56.214C120.671 56.7535 121.602 57.0232 122.533 57.0232C123.274 57.0232 123.929 56.7669 124.495 56.2544C125.075 55.7419 125.527 54.9664 125.85 53.9278C126.188 52.8758 126.356 51.5676 126.356 50.003C126.356 48.4655 126.194 47.2246 125.871 46.2805C125.56 45.3229 125.142 44.6283 124.616 44.1967C124.104 43.7516 123.537 43.5291 122.917 43.5291C122.297 43.5291 121.629 43.7044 120.914 44.0551C120.213 44.3923 119.552 44.9385 118.931 45.6938C118.311 46.4491 117.825 47.4607 117.475 48.7285L116.524 45.532C116.753 44.5878 117.219 43.6707 117.92 42.7805C118.621 41.8904 119.491 41.162 120.53 40.5956C121.582 40.0156 122.742 39.7256 124.009 39.7256C125.574 39.7256 126.876 40.164 127.914 41.0407C128.966 41.9039 129.748 43.111 130.261 44.662C130.787 46.2131 131.05 48.0001 131.05 50.0233Z" fill="white"/>
<path d="M137.862 59.738C137.026 59.738 136.324 59.4548 135.758 58.8883C135.191 58.3219 134.908 57.6205 134.908 56.7843C134.908 55.9481 135.191 55.2467 135.758 54.6803C136.324 54.1138 137.026 53.8306 137.862 53.8306C138.671 53.8306 139.359 54.1138 139.926 54.6803C140.492 55.2467 140.775 55.9481 140.775 56.7843C140.775 57.6205 140.492 58.3219 139.926 58.8883C139.359 59.4548 138.671 59.738 137.862 59.738Z" fill="white"/>
<path d="M54.3899 27.195C54.3899 23.6237 53.6865 20.0873 52.3198 16.7879C50.9531 13.4884 48.95 10.4905 46.4247 7.96522C43.8994 5.43993 40.9015 3.43677 37.602 2.07009C34.3026 0.703418 30.7662 -1.56106e-07 27.1949 0C23.6237 1.56106e-07 20.0873 0.703418 16.7879 2.07009C13.4884 3.43677 10.4905 5.43993 7.96522 7.96522C5.43993 10.4905 3.43677 13.4885 2.07009 16.7879C0.703418 20.0873 -3.12212e-07 23.6237 0 27.195L11.0837 27.195C11.0837 25.0792 11.5005 22.9842 12.3101 21.0295C13.1198 19.0748 14.3065 17.2987 15.8026 15.8026C17.2987 14.3065 19.0748 13.1198 21.0295 12.3101C22.9842 11.5005 25.0792 11.0837 27.195 11.0837C29.3107 11.0837 31.4057 11.5005 33.3604 12.3101C35.3151 13.1198 37.0912 14.3065 38.5873 15.8026C40.0834 17.2987 41.2701 19.0748 42.0798 21.0295C42.8894 22.9842 43.3062 25.0792 43.3062 27.195L54.3899 27.195Z" fill="white"/>
<path d="M39.3861 27.195C39.3861 25.5941 39.0708 24.0088 38.4581 22.5298C37.8455 21.0507 36.9475 19.7068 35.8155 18.5748C34.6834 17.4427 33.3395 16.5448 31.8605 15.9321C30.3814 15.3195 28.7962 15.0042 27.1952 15.0042C25.5943 15.0042 24.0091 15.3195 22.53 15.9321C21.0509 16.5448 19.707 17.4427 18.575 18.5748C17.443 19.7068 16.545 21.0507 15.9324 22.5298C15.3197 24.0088 15.0044 25.5941 15.0044 27.195L19.973 27.195C19.973 26.2465 20.1598 25.3074 20.5227 24.4311C20.8857 23.5549 21.4177 22.7587 22.0883 22.0881C22.759 21.4174 23.5551 20.8854 24.4314 20.5225C25.3076 20.1595 26.2468 19.9727 27.1952 19.9727C28.1437 19.9727 29.0828 20.1595 29.9591 20.5225C30.8353 20.8854 31.6315 21.4174 32.3022 22.0881C32.9728 22.7587 33.5048 23.5549 33.8677 24.4311C34.2307 25.3074 34.4175 26.2465 34.4175 27.195L39.3861 27.195Z" fill="white"/>
<path d="M24.3818 27.195C24.3818 26.4489 24.6782 25.7333 25.2057 25.2057C25.7333 24.6782 26.4489 24.3818 27.195 24.3818C27.9412 24.3818 28.6567 24.6782 29.1843 25.2057C29.7119 25.7333 30.0083 26.4489 30.0083 27.195L27.195 27.195L24.3818 27.195Z" fill="white"/>
</svg>
